# xmcd
#
# Track frame offsets:
#	150
#	30362
#	59403
#	72319
#	82412
#	96206
#	109845
#	121228
#	134074
#	147306
#
# Disc length: 2147 seconds
#
# Revision: 1
# Processed by: cddbd v1.5.1PL0 Copyright (c) Steve Scherf et al.
# Submitted via: audiograbber 1.83.01
#
DISCID=9608610a
DTITLE=Ray Charles - Ray Charles (Essentially Classic)
DYEAR=2005
DGENRE=Rhythm and Blues
TTITLE0=Georgia On My Mind
TTITLE1=What I'd Say
TTITLE2=Baby Won't You Please Come Home
TTITLE3=I'm Movin' On
TTITLE4=Blues Is My Middle Name
TTITLE5=I Got A Woman
TTITLE6=She's On The Ball
TTITLE7=Heartbreaker
TTITLE8=I'm Going Down To The River
TTITLE9=Late In The Evening Blues
EXTD=Triggerfish Entertainment Compilation Disc
EXTT0=
EXTT1=
EXTT2=
EXTT3=
EXTT4=
EXTT5=
EXTT6=
EXTT7=
EXTT8=
EXTT9=
PLAYORDER=
